<svg xmlns="http://www.w3.org/2000/svg" viewBox="0 0 128 128">
  <defs>
    <linearGradient id="bg" x1="0%" y1="0%" x2="100%" y2="100%">
      <stop offset="0%" stop-color="#1d4ed8" />
      <stop offset="100%" stop-color="#0f766e" />
    </linearGradient>
  </defs>
  <rect width="128" height="128" rx="28" fill="url(#bg)" />
  <path
    d="M64 18c-19.1 0-34.5 15.1-34.5 33.8 0 23.8 28.2 46.9 32.5 50.3a3.2 3.2 0 0 0 4 0c4.3-3.4 32.5-26.5 32.5-50.3C98.5 33.1 83.1 18 64 18Z"
    fill="#f8fafc"
  />
  <circle cx="64" cy="52" r="15" fill="#1d4ed8" />
  <path
    d="M27 95.5c10.4-9.2 22.4-13.8 37-13.8 14.3 0 26.2 4.6 37 13.8"
    fill="none"
    stroke="#bbf7d0"
    stroke-linecap="round"
    stroke-width="9"
  />
  <path
    d="M36 84.5l12 7.2M92 84.5l-12 7.2"
    fill="none"
    stroke="#bbf7d0"
    stroke-linecap="round"
    stroke-width="7"
  />
</svg>
